<svg width="122" height="113" viewBox="0 0 122 113" fill="none" xmlns="http://www.w3.org/2000/svg">
<path d="M47.7147 95.4695C74.0669 95.4695 95.4295 74.1069 95.4295 47.7548C95.4295 21.4027 74.0669 0.0400391 47.7147 0.0400391C21.3626 0.0400391 0 21.4027 0 47.7548C0 74.1069 21.3626 95.4695 47.7147 95.4695Z" fill="#FEDD00"/>
<path d="M57.5907 88.082L81.1051 101.27C81.1051 101.27 79.5506 103.628 79.5506 104.124C79.5506 104.621 78.0875 107.677 77.591 107.808C77.0946 107.939 52.6788 93.3793 52.6788 93.3793C52.6788 93.3793 51.5945 88.9116 51.7839 89.0422C51.9734 89.1728 57.5907 88.082 57.5907 88.082Z" fill="#C7CFD5"/>
<path d="M34.5537 85.2405L38.7014 82.8434V49.2438L34.5537 45.8604V85.2405Z" fill="#C7CFD5"/>
<path d="M53.4434 90.4731L57.591 88.076V65.5544L53.4434 62.1709V90.4731Z" fill="#C7CFD5"/>
<path d="M29.7002 42.4971V82.341L34.697 85.2085V58.5587L50.5954 67.8339V94.366L82.6012 112.753V73.3728L29.7002 42.4971ZM77.6044 104.105L53.7111 90.3882V69.6497L77.6044 83.5886V104.105Z" fill="#A0A9AE"/>
<path d="M83.6455 72.7651V112.145L115.096 93.9869V54.6133L83.6455 72.7651Z" fill="#C7CFD5"/>
<path d="M52.6719 15.4418L59.6478 11.3398L75.0629 20.2035L68.0412 24.2336L52.6719 15.4418Z" fill="#A0A9AE"/>
<path d="M59.3086 8.96289L22.8154 30.0214L33.0899 35.9653L85.0438 65.9658L108.82 52.2491L121.53 44.9073L59.3086 8.96289ZM105.541 50.3353L84.1294 62.5758L35.5132 34.5545L28.3283 30.4198L50.68 17.6763V15.6188L59.6417 10.3542L77.075 20.3739V22.9866L115.09 44.8747L105.541 50.3353Z" fill="#C7CFD5"/>
<path d="M107.455 47.1417L55.9906 17.3436C55.7016 17.1736 55.3723 17.084 55.037 17.084C54.7016 17.084 54.3724 17.1736 54.0833 17.3436L50.5823 19.3619C50.9727 19.68 51.2911 20.0774 51.5164 20.5279C51.7416 20.9783 51.8685 21.4715 51.8886 21.9747C51.8886 24.9597 47.14 27.3765 41.281 27.3765C39.9829 27.3803 38.6877 27.2556 37.4142 27.0041L32.5676 29.8063C32.2847 29.9748 32.0505 30.2139 31.8878 30.5001C31.7252 30.7864 31.6396 31.11 31.6396 31.4392C31.6396 31.7685 31.7252 32.0921 31.8878 32.3783C32.0505 32.6646 32.2847 32.9037 32.5676 33.0722L84.0446 62.8702C84.3348 63.037 84.6636 63.1247 84.9983 63.1247C85.333 63.1247 85.6618 63.037 85.9519 62.8702L107.474 50.4598C107.767 50.2917 108.009 50.049 108.177 49.7566C108.345 49.4641 108.433 49.1323 108.431 48.795C108.429 48.4577 108.337 48.127 108.166 47.8365C107.994 47.5461 107.749 47.3063 107.455 47.1417ZM42.6853 34.0781L40.347 35.4432C40.2434 35.5022 40.1265 35.5336 40.0073 35.5347C39.8887 35.5362 39.7719 35.5054 39.6695 35.4455C39.5671 35.3857 39.4829 35.2991 39.426 35.195C39.3788 35.119 39.3478 35.0342 39.3348 34.9457C39.3218 34.8572 39.3271 34.767 39.3503 34.6807C39.3736 34.5943 39.4144 34.5137 39.4701 34.4438C39.5258 34.3738 39.5953 34.316 39.6742 34.274L42.0126 32.9219C42.0893 32.8791 42.1738 32.8517 42.2611 32.8415C42.3485 32.8312 42.437 32.8383 42.5216 32.8622C42.6062 32.8862 42.6853 32.9266 42.7543 32.9811C42.8233 33.0356 42.8809 33.1032 42.9238 33.18C42.9666 33.2567 42.994 33.3412 43.0042 33.4285C43.0145 33.5159 43.0074 33.6044 42.9835 33.689C42.9595 33.7736 42.9191 33.8527 42.8646 33.9217C42.8101 33.9907 42.7425 34.0483 42.6658 34.0911L42.6853 34.0781ZM47.3686 31.3935L45.0237 32.7456C44.9229 32.8054 44.8078 32.837 44.6906 32.837C44.5257 32.8755 44.3523 32.8483 44.2069 32.7613C44.0616 32.6744 43.9558 32.5343 43.9117 32.3708C43.8677 32.2073 43.8888 32.033 43.9708 31.8848C44.0527 31.7366 44.189 31.626 44.351 31.5764L46.6893 30.2243C46.8457 30.1361 47.0304 30.1126 47.2038 30.159C47.3772 30.2055 47.5255 30.318 47.6169 30.4725C47.664 30.5485 47.695 30.6334 47.708 30.7218C47.7211 30.8103 47.7158 30.9005 47.6925 30.9868C47.6692 31.0732 47.6285 31.1538 47.5728 31.2238C47.5171 31.2937 47.4476 31.3515 47.3686 31.3935ZM52.0454 28.6959L49.707 30.0349C49.6043 30.0959 49.4868 30.1275 49.3674 30.1263C49.2043 30.1589 49.0349 30.128 48.8938 30.04C48.7527 29.952 48.6505 29.8135 48.608 29.6527C48.5655 29.4919 48.5859 29.3209 48.6651 29.1747C48.7444 29.0285 48.8764 28.918 49.0342 28.8657L51.3726 27.5136C51.5285 27.427 51.7125 27.4059 51.884 27.4549C52.0555 27.5039 52.2005 27.619 52.2871 27.7749C52.3737 27.9308 52.3948 28.1147 52.3458 28.2862C52.2968 28.4577 52.1817 28.6027 52.0258 28.6893L52.0454 28.6959ZM56.7287 25.9917L54.3903 27.3438C54.2861 27.4012 54.1696 27.4326 54.0507 27.4352C53.9675 27.4575 53.8807 27.4632 53.7953 27.452C53.7099 27.4408 53.6275 27.4128 53.5529 27.3698C53.4783 27.3267 53.4129 27.2694 53.3605 27.201C53.308 27.1327 53.2696 27.0547 53.2473 26.9715C53.225 26.8883 53.2193 26.8015 53.2305 26.7161C53.2417 26.6307 53.2697 26.5483 53.3127 26.4737C53.3558 26.3991 53.4131 26.3337 53.4815 26.2813C53.5498 26.2289 53.6278 26.1904 53.711 26.1681L56.0494 24.816C56.1262 24.7731 56.2106 24.7458 56.298 24.7355C56.3853 24.7253 56.4738 24.7323 56.5584 24.7563C56.643 24.7802 56.7221 24.8206 56.7911 24.8751C56.8601 24.9297 56.9177 24.9972 56.9606 25.074C57.0035 25.1508 57.0308 25.2352 57.0411 25.3226C57.0513 25.4099 57.0442 25.4984 57.0203 25.583C56.9963 25.6676 56.9559 25.7467 56.9014 25.8157C56.8469 25.8847 56.7793 25.9423 56.7026 25.9852L56.7287 25.9917ZM61.3989 23.281L59.0605 24.6331C58.957 24.692 58.8401 24.7235 58.7209 24.7245C58.6023 24.7261 58.4855 24.6952 58.3831 24.6354C58.2807 24.5756 58.1965 24.489 58.1396 24.3849C58.0924 24.3089 58.0614 24.2241 58.0484 24.1356C58.0354 24.0471 58.0407 23.9569 58.0639 23.8706C58.0872 23.7842 58.1279 23.7036 58.1837 23.6336C58.2394 23.5637 58.3088 23.5059 58.3878 23.4639L60.7458 22.1118C60.8225 22.0689 60.907 22.0416 60.9943 22.0314C61.0817 22.0211 61.1702 22.0282 61.2548 22.0521C61.3394 22.0761 61.4185 22.1165 61.4875 22.171C61.5565 22.2255 61.614 22.2931 61.6569 22.3698C61.6998 22.4466 61.7272 22.5311 61.7374 22.6184C61.7477 22.7058 61.7406 22.7943 61.7166 22.8789C61.6927 22.9635 61.6523 23.0425 61.5978 23.1115C61.5433 23.1805 61.4757 23.2381 61.3989 23.281ZM85.769 60.1856C85.7544 60.211 85.7335 60.2321 85.7083 60.247C85.6832 60.2619 85.6546 60.27 85.6253 60.2706C85.5978 60.28 85.568 60.28 85.5404 60.2706L77.5325 55.6134C77.4945 55.5891 77.4672 55.5513 77.4563 55.5075C77.4453 55.4638 77.4516 55.4175 77.4737 55.3783C77.4967 55.3407 77.5334 55.3136 77.5761 55.3026C77.6187 55.2917 77.664 55.2977 77.7023 55.3195L85.7168 59.957C85.7543 59.9801 85.7814 60.0168 85.7924 60.0595C85.8034 60.1021 85.7973 60.1474 85.7756 60.1856H85.769ZM88.336 59.1993C88.2791 59.3034 88.1949 59.39 88.0925 59.4498C87.9901 59.5097 87.8733 59.5405 87.7547 59.539C87.6355 59.538 87.5186 59.5065 87.4151 59.4476L79.4071 54.81C79.3303 54.7671 79.2627 54.7095 79.2082 54.6405C79.1537 54.5715 79.1133 54.4924 79.0894 54.4078C79.0654 54.3232 79.0583 54.2347 79.0686 54.1474C79.0788 54.06 79.1062 53.9756 79.1491 53.8988C79.192 53.822 79.2496 53.7545 79.3186 53.6999C79.3876 53.6454 79.4666 53.605 79.5512 53.5811C79.6358 53.5571 79.7243 53.5501 79.8117 53.5603C79.899 53.5706 79.9835 53.5979 80.0603 53.6408L88.0748 58.2784C88.1553 58.3186 88.2267 58.3751 88.2844 58.4443C88.3421 58.5135 88.3849 58.5938 88.41 58.6803C88.4352 58.7668 88.4422 58.8576 88.4306 58.9469C88.419 59.0362 88.389 59.1222 88.3426 59.1993H88.336ZM90.178 57.795C90.1482 57.8466 90.1054 57.8895 90.0538 57.9193C90.0022 57.9491 89.9437 57.9648 89.8841 57.9648C89.8243 57.9661 89.7653 57.9502 89.7142 57.9191L81.7063 53.2815C81.6378 53.2328 81.5899 53.1604 81.5717 53.0784C81.5535 52.9964 81.5664 52.9105 81.6078 52.8374C81.6492 52.7643 81.7163 52.7092 81.796 52.6826C81.8757 52.6561 81.9624 52.66 82.0394 52.6937L90.0539 57.3313C90.1316 57.3764 90.1888 57.4501 90.2131 57.5367C90.2375 57.6232 90.2273 57.7159 90.1845 57.795H90.178ZM92.2159 56.4887C92.1949 56.5238 92.1653 56.553 92.1299 56.5736C92.0944 56.5942 92.0544 56.6054 92.0134 56.6062C91.9748 56.6159 91.9345 56.6159 91.8959 56.6062L83.8814 51.9687C83.8488 51.956 83.8193 51.9363 83.795 51.9111C83.7708 51.8859 83.7523 51.8558 83.7408 51.8227C83.7293 51.7897 83.7252 51.7545 83.7286 51.7197C83.732 51.6849 83.743 51.6512 83.7607 51.6211C83.7784 51.5909 83.8025 51.565 83.8312 51.545C83.8599 51.525 83.8927 51.5116 83.9271 51.5055C83.9616 51.4994 83.9969 51.5009 84.0308 51.5098C84.0646 51.5187 84.0961 51.5349 84.123 51.5572L92.1375 56.2143C92.1855 56.2442 92.2207 56.2907 92.2364 56.345C92.2521 56.3993 92.2471 56.4574 92.2225 56.5082L92.2159 56.4887ZM94.4367 55.2999C94.406 55.3506 94.3629 55.3928 94.3115 55.4225C94.2602 55.4522 94.2021 55.4684 94.1428 55.4697C94.0834 55.4678 94.0253 55.4521 93.973 55.424L85.965 50.7864C85.9248 50.7649 85.8894 50.7356 85.8607 50.7002C85.8321 50.6647 85.8109 50.6239 85.7984 50.5801C85.7859 50.5363 85.7824 50.4904 85.7879 50.4452C85.7935 50.4 85.8081 50.3563 85.8309 50.3169C85.8537 50.2774 85.8842 50.243 85.9206 50.2156C85.957 50.1881 85.9985 50.1683 86.0427 50.1573C86.0869 50.1462 86.1329 50.1442 86.1779 50.1513C86.2229 50.1584 86.266 50.1744 86.3047 50.1985L94.3126 54.8361C94.3544 54.8578 94.3913 54.8879 94.4208 54.9245C94.4504 54.9612 94.472 55.0036 94.4842 55.0491C94.4965 55.0945 94.4992 55.142 94.4922 55.1886C94.4851 55.2351 94.4685 55.2797 94.4433 55.3195L94.4367 55.2999ZM96.8666 54.2548C96.8065 54.3575 96.7207 54.4429 96.6176 54.5025C96.5145 54.562 96.3977 54.5937 96.2787 54.5944C96.1596 54.5926 96.0429 54.5611 95.939 54.503L87.9311 49.8654C87.8543 49.8225 87.7867 49.7649 87.7322 49.6959C87.6777 49.6269 87.6373 49.5479 87.6134 49.4633C87.5894 49.3786 87.5823 49.2901 87.5926 49.2028C87.6028 49.1155 87.6302 49.031 87.6731 48.9542C87.716 48.8775 87.7735 48.8099 87.8425 48.7554C87.9115 48.7009 87.9906 48.6605 88.0752 48.6365C88.1598 48.6126 88.2483 48.6055 88.3357 48.6157C88.423 48.626 88.5075 48.6533 88.5842 48.6962L96.5922 53.3338C96.6734 53.3735 96.7454 53.4295 96.8037 53.4984C96.8621 53.5673 96.9056 53.6476 96.9313 53.7341C96.9571 53.8207 96.9647 53.9116 96.9535 54.0012C96.9424 54.0909 96.9128 54.1772 96.8666 54.2548ZM98.702 52.8504C98.6712 52.9012 98.6282 52.9434 98.5768 52.973C98.5254 53.0027 98.4674 53.019 98.4081 53.0203C98.3487 53.0183 98.2906 53.0027 98.2382 52.9746L90.2303 48.337C90.1901 48.3155 90.1546 48.2862 90.126 48.2507C90.0974 48.2153 90.0762 48.1744 90.0637 48.1306C90.0512 48.0868 90.0476 48.041 90.0532 47.9958C90.0588 47.9505 90.0734 47.9069 90.0962 47.8675C90.119 47.828 90.1495 47.7936 90.1859 47.7661C90.2222 47.7387 90.2638 47.7189 90.308 47.7079C90.3522 47.6968 90.3981 47.6948 90.4431 47.7019C90.4881 47.709 90.5312 47.725 90.5699 47.7491L98.5779 52.3867C98.6541 52.4317 98.7096 52.5047 98.7328 52.5901C98.756 52.6755 98.7449 52.7666 98.702 52.8439V52.8504ZM100.746 51.5441C100.724 51.5797 100.694 51.6092 100.657 51.6298C100.621 51.6504 100.579 51.6613 100.537 51.6617C100.499 51.6704 100.459 51.6704 100.42 51.6617L92.4119 47.0241C92.384 47.0091 92.3594 46.9887 92.3396 46.9639C92.3197 46.9392 92.3051 46.9108 92.2966 46.8803C92.288 46.8498 92.2858 46.8179 92.2898 46.7865C92.2939 46.755 92.3043 46.7248 92.3204 46.6975C92.353 46.6435 92.4054 46.6045 92.4664 46.5886C92.5275 46.5727 92.5923 46.5813 92.647 46.6126L100.655 51.2502C100.706 51.2803 100.744 51.3287 100.761 51.3857C100.778 51.4426 100.773 51.5039 100.746 51.5572V51.5441ZM102.876 50.3357C102.855 50.3723 102.824 50.4025 102.787 50.4231C102.751 50.4438 102.709 50.4542 102.667 50.4533C102.625 50.4547 102.584 50.4433 102.549 50.4206L94.5412 45.7635C94.4939 45.7284 94.4609 45.6773 94.4486 45.6197C94.4362 45.5621 94.4454 45.502 94.4743 45.4506C94.5031 45.3993 94.5498 45.3602 94.6054 45.3409C94.6611 45.3215 94.7219 45.3231 94.7764 45.3454L102.791 49.983C102.821 49.999 102.848 50.0213 102.869 50.0484C102.89 50.0755 102.905 50.1068 102.913 50.1402C102.921 50.1735 102.922 50.2082 102.915 50.2419C102.909 50.2757 102.896 50.3076 102.876 50.3357ZM104.946 49.0293C104.931 49.0556 104.909 49.0774 104.883 49.0923C104.856 49.1072 104.826 49.1148 104.796 49.1143C104.768 49.1203 104.739 49.1203 104.711 49.1143L96.7033 44.4571C96.684 44.4463 96.6672 44.4317 96.6537 44.4142C96.6403 44.3967 96.6305 44.3767 96.625 44.3553C96.6195 44.334 96.6184 44.3117 96.6218 44.2899C96.6251 44.2681 96.6328 44.2472 96.6445 44.2285C96.6547 44.2087 96.6689 44.1912 96.6861 44.1771C96.7033 44.163 96.7233 44.1526 96.7447 44.1465C96.7661 44.1403 96.7885 44.1387 96.8106 44.1415C96.8327 44.1444 96.854 44.1518 96.8731 44.1632L104.881 48.8007C104.901 48.811 104.918 48.8251 104.932 48.8424C104.947 48.8596 104.957 48.8795 104.963 48.9009C104.969 48.9223 104.971 48.9448 104.968 48.9669C104.965 48.989 104.958 49.0102 104.946 49.0293Z" fill="#231F20"/>
<path d="M69.041 26.1343L76.0692 22.0977V28.12L69.041 32.1501V26.1343Z" fill="#C7CFD5"/>
<path d="M43.2529 44.6586L44.8597 45.6123V50.3805L43.2529 49.4203V44.6586ZM43.2529 43.5613C43.2529 43.0845 43.5991 42.9081 44.0498 43.2021C44.2782 43.3399 44.4703 43.5304 44.6101 43.7577C44.7499 43.985 44.8332 44.2424 44.8532 44.5084C44.8532 44.9852 44.507 45.1616 44.0498 44.8742C43.824 44.733 43.6348 44.5405 43.4975 44.3124C43.3601 44.0842 43.2786 43.8269 43.2595 43.5613H43.2529Z" fill="#231F20"/>
<path d="M46.709 51.4784V46.7036L45.2197 45.8218V44.3652L49.8573 47.1282V48.5782L48.3681 47.7226V52.4908L46.709 51.4784Z" fill="#231F20"/>
<path d="M50.1777 48.7797L51.7846 49.7334V54.5016L50.1777 53.5479V48.7797ZM50.1777 47.6824C50.1777 47.2056 50.5239 47.0292 50.9746 47.3231C51.2022 47.4614 51.3933 47.6521 51.532 47.8794C51.6706 48.1067 51.7527 48.3639 51.7715 48.6295C51.7715 49.0998 51.4318 49.2827 50.9746 48.9888C50.7493 48.8486 50.5603 48.6572 50.423 48.4302C50.2857 48.2032 50.2039 47.947 50.1843 47.6824H50.1777Z" fill="#231F20"/>
<path d="M55.1671 53.7246C55.1631 53.4989 55.1054 53.2775 54.9986 53.0786C54.8918 52.8798 54.739 52.7094 54.5531 52.5815C54.1285 52.3267 53.8999 52.5815 53.8999 53.3784C53.8618 53.675 53.902 53.9763 54.0166 54.2525C54.1312 54.5287 54.3162 54.7701 54.5531 54.9525C54.9123 55.1681 55.141 55.0309 55.1671 54.5737L56.6302 55.4424C56.6302 56.7488 55.8137 57.0231 54.5335 56.2589C53.8494 55.8723 53.2788 55.3129 52.8787 54.6366C52.4787 53.9603 52.2632 53.1908 52.2539 52.4051C52.2539 50.8571 53.1096 50.4456 54.4943 51.249C55.0981 51.5849 55.6078 52.0672 55.9764 52.6516C56.3451 53.236 56.5609 53.9037 56.6041 54.5933L55.1671 53.7246Z" fill="#231F20"/>
<path d="M59.8115 54.5156L61.5751 55.5606L60.1381 56.7364L61.6731 60.3876L59.8311 59.2968L58.9428 57.0891L58.7272 57.272V58.6371L57.127 57.6835V51.4521L58.7272 52.4123V55.5933L59.8115 54.5156Z" fill="#231F20"/>
<path d="M65.9255 61.38C65.7883 62.3271 64.9784 62.4773 63.7896 61.7719C63.1125 61.3879 62.548 60.8329 62.1525 60.1623C61.7571 59.4918 61.5445 58.7292 61.5361 57.9508C61.5361 56.3897 62.3853 55.926 63.7439 56.7359C64.3994 57.1145 64.9478 57.6537 65.3375 58.3028C65.7272 58.9518 65.9452 59.6894 65.9712 60.446V60.9293L63.0776 59.218V59.3355C63.0911 59.5867 63.1653 59.8308 63.2938 60.047C63.4224 60.2631 63.6015 60.4449 63.8157 60.5766C64.1423 60.766 64.4036 60.7529 64.4689 60.5243L65.9255 61.38ZM63.1038 58.2774L64.4493 59.0808C64.4339 58.8587 64.3668 58.6432 64.2534 58.4516C64.14 58.2599 63.9834 58.0974 63.7961 57.9769C63.4108 57.7548 63.1364 57.8855 63.1038 58.2774Z" fill="#231F20"/>
<path d="M68.4273 58.604V59.6491L69.185 60.0998V61.4062L68.4273 60.9555V62.7191C68.4326 62.8746 68.4804 63.0257 68.5656 63.1558C68.6509 63.286 68.7702 63.3902 68.9107 63.4572C68.9988 63.5112 69.0905 63.5592 69.185 63.6009V64.8288C68.9584 64.7363 68.7399 64.6249 68.5318 64.4957C67.3104 63.7707 66.8271 63.0979 66.8271 62.1573V60.0018L66.2588 59.6622V58.3558L66.8271 58.702V57.6504L68.4273 58.604Z" fill="#231F20"/>
</svg>
